<?xml version="1.0" encoding="utf-8"?>
<!-- Generator: Adobe Illustrator 16.0.3, SVG Export Plug-In . SVG Version: 6.00 Build 0)  -->
<!DOCTYPE svg PUBLIC "-//W3C//DTD SVG 1.1//EN" "http://www.w3.org/Graphics/SVG/1.1/DTD/svg11.dtd">
<svg version="1.1" id="Capa_1" xmlns="http://www.w3.org/2000/svg" xmlns:xlink="http://www.w3.org/1999/xlink" x="0px" y="0px"
	 width="91.27px" height="58.94px" viewBox="0 0 91.27 58.94" enable-background="new 0 0 91.27 58.94" xml:space="preserve">
<path d="M27.09,0c-5.52,0-10,4.47-10,10c0,5.52,4.48,10,10,10c5.521,0,10-4.48,10-10C37.09,4.47,32.61,0,27.09,0z M64.18,0
	c-5.52,0-10,4.47-10,10c0,5.52,4.48,10,10,10c5.521,0,10-4.48,10-10C74.18,4.47,69.7,0,64.18,0z M74.18,0v58.94h17.09V10L74.18,0z
	 M37.09,0v58.94h17.09V10L37.09,0z M0,0v58.94h17.09V0H0z"/>
</svg>
